<svg id="Calque_1" data-name="Calque 1" xmlns="http://www.w3.org/2000/svg" viewBox="0 0 850 850"><defs><style>.cls-1{fill:#fff;}.cls-2{fill:#0477bf;}</style></defs><circle class="cls-1" cx="424.91" cy="424.91" r="425.09"/><path class="cls-2" d="M390.52,642.77q14.48-21.75-2-50.22-13.89-24.06-38.74-21.72Q335.95,572.15,316,583.4l-75.92,43.83,47.48,82.25,74.89-43.24Q382.49,654.66,390.52,642.77Z"/><path class="cls-2" d="M277.63,453.18q-17.07,3.44-39.23,16.23l-67.11,38.74,39.27,68,75-43.29q20.08-11.6,28.21-26.47t-3.12-34.34Q298.19,450.53,277.63,453.18Z"/><path class="cls-2" d="M659.47,460.35q-24.86-38.5-73.68-56.24,32.13-16.46,48.66-36.38Q664,332.29,664,273.8q0-56.66-29.27-97.39-48.66-66.23-165.35-67.95H161V416.55a15.08,15.08,0,0,0,22.62,13.06L227.91,404q56.91-31.72,98.92-13.3,25.51,11.5,41.34,38.92,16.32,28.25,11.93,53.66-2.42,14.24-13.37,31.16,28.56-5.06,51.34,6.63t38.11,38.27q15.84,27.42,14.67,57.11A98.13,98.13,0,0,1,463,653.37Q454.76,673.2,437.1,689a247,247,0,0,1-41.17,29.35h0c-13.36,7.71-7.89,28.14,7.54,28.14h45q48.58,0,90.16-8.63t72.07-32a176.27,176.27,0,0,0,45.18-50.22q28.43-45,28.4-101.69Q684.31,498.93,659.47,460.35Z"/></svg>